<svg width="79" height="79" viewBox="0 0 79 79" fill="none" xmlns="http://www.w3.org/2000/svg">
<path d="M29.625 8.05383C29.1012 8.05383 28.5988 8.26191 28.2284 8.6323C27.8581 9.00268 27.65 9.50503 27.65 10.0288V19.7498H17.775C17.2512 19.7498 16.7488 19.9579 16.3784 20.3282C16.0081 20.6986 15.8 21.201 15.8 21.7248V37.7736L9.34567 39.5709C9.06873 39.648 8.81197 39.7847 8.59333 39.9714C8.37469 40.1581 8.19944 40.3903 8.07982 40.6517C7.96021 40.9131 7.89911 41.1975 7.90079 41.485C7.90247 41.7725 7.9669 42.0561 8.08957 42.3161L15.2075 57.4407C16.0767 56.3923 17.2805 55.6753 18.6163 55.4104L12.6558 42.7506L37.367 35.8618C38.7546 35.475 40.2216 35.475 41.6093 35.8618L66.3244 42.7427L60.2414 55.3827C61.5797 55.6051 62.8011 56.2799 63.7016 57.2945L70.9104 42.3319C71.0359 42.0715 71.1028 41.7866 71.1062 41.4974C71.1096 41.2083 71.0494 40.9219 70.93 40.6586C70.8106 40.3952 70.6348 40.1613 70.415 39.9734C70.1952 39.7854 69.9369 39.648 69.6582 39.5709L63.2 37.7736V21.7248C63.2 21.201 62.9919 20.6986 62.6215 20.3282C62.2511 19.9579 61.7488 19.7498 61.225 19.7498H51.35V10.0328C51.35 9.50898 51.1419 9.00663 50.7715 8.63625C50.4011 8.26586 49.8988 8.05778 49.375 8.05778H29.625V8.05383ZM47.4 19.7498H31.6V12.0078H47.4V19.7498ZM59.25 23.6998V36.6755L42.6639 32.054C40.5837 31.4746 38.3847 31.4746 36.3044 32.054L19.75 36.6716V23.6998H59.25Z" fill="white"/>
<path d="M61.1777 60.7902L61.1658 60.7507C61.0643 60.3421 60.8347 59.9766 60.5108 59.7076C60.1868 59.4387 59.7854 59.2803 59.365 59.2556C58.9447 59.2309 58.5274 59.3412 58.1742 59.5703C57.821 59.7995 57.5502 60.1356 57.4015 60.5295L57.3817 60.573C57.3659 60.6125 57.3422 60.6836 57.3027 60.7705C56.7996 61.9027 56.1516 62.9649 55.3751 63.9305C53.961 65.6685 51.9979 67.1497 49.3751 67.1497C46.7523 67.1497 44.7852 65.6645 43.3632 63.9265C42.5391 62.9048 41.8586 61.7752 41.3408 60.569L41.321 60.5216C41.1773 60.1475 40.9232 59.826 40.5924 59.5997C40.2615 59.3735 39.8697 59.2532 39.469 59.2549C39.0682 59.2566 38.6774 59.3802 38.3486 59.6093C38.0197 59.8384 37.7683 60.1621 37.6278 60.5374L37.608 60.5769C37.5922 60.6164 37.5685 60.6875 37.529 60.7744C37.0288 61.9053 36.3835 62.9662 35.6093 63.9305C34.2031 65.6685 32.2479 67.1497 29.6251 67.1497C27.0023 67.1497 25.0431 65.6685 23.629 63.9305C22.8069 62.9088 22.1291 61.7791 21.6145 60.573L21.5987 60.5335V60.5256C21.4503 60.1316 21.1799 59.7953 20.8269 59.5658C20.474 59.3364 20.0569 59.2257 19.6366 59.2499C19.2163 59.2742 18.8148 59.4321 18.4905 59.7007C18.1663 59.9692 17.9364 60.3344 17.8343 60.7428L17.8264 60.7744L17.7711 60.9601C17.4105 62.0474 16.8784 63.0702 16.1951 63.9897C14.9824 65.6053 13.0509 67.1497 9.87509 67.1497C9.35128 67.1497 8.84893 67.3578 8.47855 67.7282C8.10817 68.0986 7.90009 68.6009 7.90009 69.1247C7.90009 69.6485 8.10817 70.1509 8.47855 70.5213C8.84893 70.8916 9.35128 71.0997 9.87509 71.0997C14.5993 71.0997 17.6052 68.6942 19.3551 66.3597C19.5526 66.0911 19.7422 65.8265 19.9081 65.5618C20.1095 65.8462 20.3268 66.1306 20.5638 66.419C22.3571 68.631 25.3354 71.0997 29.6251 71.0997C33.9148 71.0997 36.8852 68.631 38.6785 66.419C38.9747 66.0516 39.2433 65.6882 39.4843 65.3327C39.7331 65.6882 40.0057 66.0556 40.3019 66.4229C42.1071 68.6349 45.0854 71.0997 49.3751 71.0997C53.6648 71.0997 56.6431 68.631 58.4364 66.419C58.6655 66.1425 58.8788 65.8581 59.0763 65.5816C59.2461 65.8502 59.4318 66.1188 59.6293 66.3874C61.3831 68.7416 64.3969 71.155 69.1488 71.0997C69.4081 71.0966 69.6644 71.0424 69.9028 70.9403C70.1412 70.8382 70.3572 70.6901 70.5384 70.5045C70.7196 70.3189 70.8624 70.0994 70.9588 69.8586C71.0552 69.6178 71.1032 69.3604 71.1001 69.101C71.097 68.8417 71.0428 68.5855 70.9407 68.347C70.8386 68.1086 70.6905 67.8926 70.5049 67.7114C70.3193 67.5302 70.0998 67.3874 69.859 67.291C69.6182 67.1946 69.3607 67.1466 69.1014 67.1497C65.9295 67.1892 64.0059 65.6487 62.8011 64.0292C62.118 63.1022 61.5885 62.0712 61.233 60.9759L61.1777 60.7863V60.7902Z" fill="white"/>
</svg>
